<svg  width="149"  id="레이어_1" data-name="레이어 1" xmlns="http://www.w3.org/2000/svg" xmlns:xlink="http://www.w3.org/1999/xlink" viewBox="0 0 156.12 38.88"><defs><style>.cls-1{fill:#009EE7;}.cls-2{fill:url(#무제_그라디언트_16);}</style><linearGradient id="무제_그라디언트_16" x1="324.59" y1="395.47" x2="370.51" y2="395.47" gradientUnits="userSpaceOnUse"><stop offset="0" stop-color="#009fe8"/><stop offset="0.11" stop-color="#05a1e8"/><stop offset="0.23" stop-color="#13a6ea"/><stop offset="0.36" stop-color="#2aafec"/><stop offset="0.5" stop-color="#4bbbef"/><stop offset="0.64" stop-color="#75cbf3"/><stop offset="0.79" stop-color="#a8def7"/><stop offset="0.94" stop-color="#e4f5fd"/><stop offset="1" stop-color="#fff"/></linearGradient></defs><path class="cls-1" d="M224,376.92l-9.6,37.1H226.9l1.34-5.88H238l1.39,5.88h12.51l-9.59-37.1Zm6.43,21.77,2.42-10.39h.64l2.38,10.39Z" transform="translate(-214.39 -376.03)"/><path class="cls-1" d="M281,393.44a12.06,12.06,0,0,0-4.23-2.39,29.25,29.25,0,0,0-6.53-1.32l-4.25-.39v-2.92a45,45,0,0,1,5.64-.3,59.16,59.16,0,0,1,8.85.89l1.49-9.49A63.05,63.05,0,0,0,267.76,376a29.72,29.72,0,0,0-6.7.65,10,10,0,0,0-4.48,2.2,9,9,0,0,0-2.52,4.1,21.69,21.69,0,0,0-.79,6.36,16.5,16.5,0,0,0,.62,4.82,8.2,8.2,0,0,0,2.07,3.51,10,10,0,0,0,3.89,2.3,25.67,25.67,0,0,0,6,1.19l5.34.45v3a27.53,27.53,0,0,1-3,.28c-1.14,0-2.45.07-3.93.07a41.09,41.09,0,0,1-9.84-1.34l-1.69,9.8a66.69,66.69,0,0,0,6.88,1.14,68.15,68.15,0,0,0,7.42.39c1,0,2.17,0,3.44-.07a34.06,34.06,0,0,0,3.78-.37,19.15,19.15,0,0,0,3.56-.92,8.08,8.08,0,0,0,2.82-1.7,10.89,10.89,0,0,0,2.38-3.91,17.76,17.76,0,0,0,1-6.33,15,15,0,0,0-.66-4.65A8.26,8.26,0,0,0,281,393.44Z" transform="translate(-214.39 -376.03)"/><path class="cls-1" d="M294.37,376.92,284.78,414h12.51l1.34-5.88h9.79L309.8,414h12.52l-9.6-37.1Zm6.43,21.77,2.43-10.39h.64l2.37,10.39Z" transform="translate(-214.39 -376.03)"/><path class="cls-2" d="M355.56,395.77h14.95v-.5H355.65a26.46,26.46,0,0,0,.4-4.64,20.5,20.5,0,0,0-.72-5.72H370.4v-.5H355.17a12.65,12.65,0,0,0-.83-2H366.4v-1.52H353.33a9.75,9.75,0,0,0-4.11-3h20.54v-1H324.59V414h30.08v-1h-18.2v-2.48h27.82v-.75H336.47v-4.72h7.71a12.42,12.42,0,0,0,5.62-1.14,10.29,10.29,0,0,0,2.28-1.58h10.21v-1H353c.14-.17.29-.33.42-.51a11.44,11.44,0,0,0,1-1.7h15V397.3H355.17c.11-.34.21-.68.29-1C355.5,396.1,355.52,395.94,355.56,395.77Zm-12.27-6.88v4.16c0,1.09-.32,1.78-1,2.08a8.23,8.23,0,0,1-3.14.44h-2.72v-9.15h2.72a8,8,0,0,1,3.14.45C343,387.16,343.29,387.84,343.29,388.89Z" transform="translate(-214.39 -376.03)"/></svg>